<svg id="Camada_1" data-name="Camada 1" xmlns="http://www.w3.org/2000/svg" xmlns:xlink="http://www.w3.org/1999/xlink" viewBox="0 0 920.65 168.51"><defs><style>.cls-1{fill:none;}.cls-2{clip-path:url(#clip-path);}.cls-3,.cls-4{fill:#fff;}.cls-4{opacity:0.67;}.cls-5{fill:#ee7221;}.cls-6{fill:#3a6fa6;}.cls-7{fill:#1d806d;}</style><clipPath id="clip-path"><rect class="cls-1" x="21.31" y="5.63" width="876.36" height="151.24"/></clipPath></defs><g class="cls-2"><path class="cls-3" d="M631.71,39.82a3.6,3.6,0,0,1-3.6-3.59v-25a3.6,3.6,0,0,1,3.6-3.6H752a3.6,3.6,0,0,1,3.6,3.6v25a3.6,3.6,0,0,1-3.6,3.59H715.05a3.6,3.6,0,0,0-3.59,3.6V151.07a3.6,3.6,0,0,1-3.6,3.59H675.81a3.59,3.59,0,0,1-3.59-3.59V43.42a3.6,3.6,0,0,0-3.6-3.6Z"/><path class="cls-3" d="M618.7,58.93a3.46,3.46,0,0,1-3.49,3.88H582a3.92,3.92,0,0,1-3.75-3.26,25.86,25.86,0,0,0-1.84-5.84,20.43,20.43,0,0,0-5-7,20.82,20.82,0,0,0-7.66-4.59,29.69,29.69,0,0,0-10.24-1.65q-10,0-17,4.87a30,30,0,0,0-10.45,14q-3.51,9.11-3.51,21.87,0,13.47,3.58,22.58t10.53,13.62a29.46,29.46,0,0,0,16.54,4.52,33.16,33.16,0,0,0,9.89-1.37,23.06,23.06,0,0,0,7.59-4.08,21.27,21.27,0,0,0,5.23-6.38,24.63,24.63,0,0,0,2.16-5.48,4,4,0,0,1,3.75-3l33.42.24a3.38,3.38,0,0,1,3.41,3.85,57.17,57.17,0,0,1-4.78,15.17,61.53,61.53,0,0,1-33.23,30.83q-12.18,4.94-28.3,4.94-20.19,0-36.24-8.67a62.77,62.77,0,0,1-25.28-25.52q-9.24-16.85-9.24-41.22,0-24.53,9.45-41.3a63.07,63.07,0,0,1,25.5-25.44,74,74,0,0,1,35.81-8.68,82.28,82.28,0,0,1,25.57,3.8,61.46,61.46,0,0,1,20.49,11.11A55,55,0,0,1,612.6,38.51,63.15,63.15,0,0,1,618.7,58.93Z"/><path class="cls-3" d="M375.23,154a3.61,3.61,0,0,1-3.45,2.55H336.34a3.59,3.59,0,0,1-3.41-4.72L379.09,12.3a3.6,3.6,0,0,1,3.42-2.47h49.38a3.58,3.58,0,0,1,3.41,2.47l46.17,139.56a3.59,3.59,0,0,1-3.41,4.72H442.62a3.61,3.61,0,0,1-3.45-2.55L407.94,50.79a.77.77,0,0,0-1.48,0Z"/><path class="cls-3" d="M229.57,154.66a3.6,3.6,0,0,1-3.6-3.59V11.27a3.6,3.6,0,0,1,3.6-3.6h59.65q16.32,0,28.55,6.46a46.85,46.85,0,0,1,19,18.16q6.79,11.7,6.79,27.34q0,15.79-7,27.35a46,46,0,0,1-19.53,17.8Q304.52,111,287.79,111H253.61a3.6,3.6,0,0,1-3.6-3.6V83.62a3.6,3.6,0,0,1,3.6-3.6h26.17a26.68,26.68,0,0,0,11.94-2.44,17.89,17.89,0,0,0,7.66-7.11,20.9,20.9,0,0,0,2.72-10.84,20.28,20.28,0,0,0-2.72-10.76A17.08,17.08,0,0,0,291.72,42a26.68,26.68,0,0,0-11.94-2.44H269.35a3.6,3.6,0,0,0-3.6,3.59V151.07a3.59,3.59,0,0,1-3.59,3.59Z"/><rect class="cls-3" x="21.31" y="7.67" width="39.81" height="146.99" rx="3.6"/><path class="cls-3" d="M789.52,154a3.59,3.59,0,0,1-3.44,2.55H750.71a3.6,3.6,0,0,1-3.42-4.72L793.38,12.3a3.6,3.6,0,0,1,3.42-2.47h49.29a3.6,3.6,0,0,1,3.42,2.47L895.6,151.86a3.59,3.59,0,0,1-3.41,4.72H856.81a3.6,3.6,0,0,1-3.44-2.55L822.19,50.79a.78.78,0,0,0-.74-.55.77.77,0,0,0-.74.55Z"/><path class="cls-4" d="M206.19,50.45a.83.83,0,0,1,.84.83V154.66H173.81l-53-77.23H120v77.23H80.18V7.67H114l52.11,76.94h1.15V51.28a.83.83,0,0,1,.84-.83Z"/><path class="cls-3" d="M203.43,43.74a3.6,3.6,0,0,1,3.6,3.6V151.07a3.6,3.6,0,0,1-3.6,3.59H175.71a3.59,3.59,0,0,1-3-1.56L121,77.68a.59.59,0,0,0-.47-.25A.57.57,0,0,0,120,78v73.07a3.6,3.6,0,0,1-3.6,3.59H83.78a3.6,3.6,0,0,1-3.6-3.59V11.27a3.6,3.6,0,0,1,3.6-3.6h28.28a3.6,3.6,0,0,1,3,1.58l50.82,75a.74.74,0,0,0,.62.33.75.75,0,0,0,.75-.75V47.34a3.6,3.6,0,0,1,3.6-3.6Z"/><path class="cls-5" d="M171.3,7.67h32a3.6,3.6,0,0,1,1.37.27,3.87,3.87,0,0,1,1.17.78,3.53,3.53,0,0,1,.78,1.17,3.61,3.61,0,0,1,.27,1.38v.54a3.61,3.61,0,0,1-.27,1.38,3.53,3.53,0,0,1-.78,1.17,3.87,3.87,0,0,1-1.17.78,3.6,3.6,0,0,1-1.37.27h-32a3.65,3.65,0,0,1-1.38-.27,3.82,3.82,0,0,1-1.16-.78,3.53,3.53,0,0,1-.78-1.17,3.62,3.62,0,0,1-.28-1.38v-.54A3.62,3.62,0,0,1,168,9.89a3.53,3.53,0,0,1,.78-1.17,3.82,3.82,0,0,1,1.16-.78A3.65,3.65,0,0,1,171.3,7.67Z"/><path class="cls-6" d="M171.3,18.82h32.13a3.61,3.61,0,0,1,1.38.27A3.59,3.59,0,0,1,206.76,21a3.61,3.61,0,0,1,.27,1.38V23a3.6,3.6,0,0,1-.27,1.37,3.87,3.87,0,0,1-.78,1.17,3.53,3.53,0,0,1-1.17.78,3.61,3.61,0,0,1-1.38.27H171.3a3.65,3.65,0,0,1-1.38-.27,3.49,3.49,0,0,1-1.16-.78,3.53,3.53,0,0,1-.78-1.17A3.61,3.61,0,0,1,167.7,23v-.6A3.62,3.62,0,0,1,168,21a3.53,3.53,0,0,1,.78-1.17,3.82,3.82,0,0,1,1.16-.78A3.65,3.65,0,0,1,171.3,18.82Z"/><path class="cls-7" d="M171.3,30h32a3.6,3.6,0,0,1,1.37.27,3.59,3.59,0,0,1,1.95,1.95,3.61,3.61,0,0,1,.27,1.38v.54a3.61,3.61,0,0,1-.27,1.38,3.39,3.39,0,0,1-.78,1.16,3.53,3.53,0,0,1-1.17.78,3.43,3.43,0,0,1-1.37.28h-32a3.6,3.6,0,0,1-2.54-1.06,3.39,3.39,0,0,1-.78-1.16,3.62,3.62,0,0,1-.28-1.38v-.54a3.62,3.62,0,0,1,.28-1.38,3.53,3.53,0,0,1,.78-1.17,3.49,3.49,0,0,1,1.16-.78A3.65,3.65,0,0,1,171.3,30Z"/></g></svg>