<svg id="Camada_1" data-name="Camada 1" xmlns="http://www.w3.org/2000/svg" xmlns:xlink="http://www.w3.org/1999/xlink" viewBox="0 0 920.64752 168.51064"><defs><style>.cls-1{fill:none;}.cls-2{clip-path:url(#clip-path);}.cls-3,.cls-4{fill:#11182a;}.cls-4{opacity:0.67;}.cls-5{fill:#ee7221;}.cls-6{fill:#3a6fa6;}.cls-7{fill:#1d806d;}</style><clipPath id="clip-path"><rect class="cls-1" x="14.18876" y="6.82966" width="897.26727" height="154.1318"/></clipPath></defs><g class="cls-2"><path class="cls-3" d="M626.47971,61.45877A3.55625,3.55625,0,0,1,622.9,65.444H588.88825a4.01811,4.01811,0,0,1-3.84638-3.35115,26.59016,26.59016,0,0,0-1.88754-5.98016,21.04477,21.04477,0,0,0-5.13923-7.20073,21.42554,21.42554,0,0,0-7.85493-4.70239A30.44955,30.44955,0,0,0,559.663,42.51961q-10.27832,0-17.39969,4.99641A30.82332,30.82332,0,0,0,531.545,61.84373q-3.59624,9.3313-3.59694,22.41006,0,13.8135,3.6707,23.14488,3.74383,9.25806,10.792,13.96052,7.047,4.62892,16.95859,4.62892a34.01014,34.01014,0,0,0,10.13086-1.396,23.76407,23.76407,0,0,0,7.78131-4.18811,21.68747,21.68747,0,0,0,5.35912-6.53938,25.00182,25.00182,0,0,0,2.21933-5.6173,4.03526,4.03526,0,0,1,3.83653-3.10356l34.26.2431a3.46632,3.46632,0,0,1,3.48882,3.95218,58.51768,58.51768,0,0,1-4.89591,15.54694,63.051,63.051,0,0,1-34.06328,31.59413q-12.48123,5.07084-28.99789,5.07032-20.70236,0-37.14789-8.89094a64.419,64.419,0,0,1-25.91456-26.15692q-9.46917-17.26693-9.4698-42.24874,0-25.12867,9.69095-42.32192a64.73,64.73,0,0,1,26.13459-26.084,75.92479,75.92479,0,0,1,36.70671-8.8905,84.29122,84.29122,0,0,1,26.20835,3.89409,63.04285,63.04285,0,0,1,20.99543,11.3887,56.23993,56.23993,0,0,1,14.53639,18.29556A64.8437,64.8437,0,0,1,626.47971,61.45877Z"/><path class="cls-3" d="M376.93217,158.93168a3.687,3.687,0,0,1-3.52809,2.61871H337.07964a3.68638,3.68638,0,0,1-3.49987-4.84424l47.318-143.0419a3.68568,3.68568,0,0,1,3.49987-2.52881h50.61265a3.68576,3.68576,0,0,1,3.49987,2.52881l47.318,143.0419a3.68638,3.68638,0,0,1-3.49987,4.84424H446.0039a3.6869,3.6869,0,0,1-3.5281-2.61871L410.46341,53.12182a.79352.79352,0,0,0-1.51893,0Z"/><path class="cls-3" d="M227.64533,159.58423a3.68641,3.68641,0,0,1-3.68664-3.68668V12.61017a3.68663,3.68663,0,0,1,3.68664-3.68683h61.13679q16.719,0,29.25847,6.62091a47.96709,47.96709,0,0,1,19.50479,18.612q6.96578,11.99092,6.96645,28.02811,0,16.1844-7.1864,28.02825a47.2707,47.2707,0,0,1-20.01855,18.244q-12.83312,6.4002-29.992,6.40006H252.2844a3.68635,3.68635,0,0,1-3.68664-3.68653V86.76349a3.68647,3.68647,0,0,1,3.68664-3.68668h26.81782A27.4101,27.4101,0,0,0,291.348,80.57562a18.24913,18.24913,0,0,0,7.84646-7.28287,21.40627,21.40627,0,0,0,2.7871-11.10841,20.77062,20.77062,0,0,0-2.7871-11.03465,17.4984,17.4984,0,0,0-7.84646-7.06232,27.40806,27.40806,0,0,0-12.24575-2.50119H268.41591a3.68726,3.68726,0,0,0-3.68664,3.68668V155.89755a3.68639,3.68639,0,0,1-3.68664,3.68668Z"/><path class="cls-3" d="M17.8754,8.92334H51.301a3.6866,3.6866,0,0,1,3.6866,3.6866V155.89755a3.68668,3.68668,0,0,1-3.68668,3.68668H17.87562a3.68683,3.68683,0,0,1-3.68683-3.68683V12.60994A3.6866,3.6866,0,0,1,17.8754,8.92334Z"/><path class="cls-3" d="M801.56326,158.92929a3.68658,3.68658,0,0,1-3.52937,2.6211H761.7783a3.686,3.686,0,0,1-3.49988-4.84305L805.52029,13.66589a3.6877,3.6877,0,0,1,3.50107-2.53045h50.52178a3.68785,3.68785,0,0,1,3.50107,2.53045l47.24186,143.04145a3.68612,3.68612,0,0,1-3.49994,4.84305h-36.2556a3.68666,3.68666,0,0,1-3.52937-2.6211L835.04044,53.12107a.79211.79211,0,0,0-1.51639,0Z"/><path class="cls-4" d="M203.68214,52.76583a.85989.85989,0,0,1,.86023.86026V159.58423H170.49745L116.20219,80.42838h-.88046v79.15585H74.52681V8.92334h34.6317l53.41513,78.86153h1.17358V53.62609a.86071.86071,0,0,1,.86023-.86026Z"/><path class="cls-3" d="M763.06859,8.92335H639.81188a3.68661,3.68661,0,0,0-3.68665,3.68682V38.194a3.68655,3.68655,0,0,0,3.68665,3.68652H677.6455a3.68654,3.68654,0,0,1,3.68664,3.68652V155.89753a3.68632,3.68632,0,0,0,3.68665,3.68671h32.843a3.68647,3.68647,0,0,0,3.68665-3.68671V45.56715a3.68657,3.68657,0,0,1,3.68665-3.68665h37.83349a3.68658,3.68658,0,0,0,3.68677-3.68652V12.61017A3.68664,3.68664,0,0,0,763.06859,8.92335ZM707.769,142.74842a3.6862,3.6862,0,0,1-3.68677,3.68671h-5.407a3.68652,3.68652,0,0,1-3.68664-3.68671V55.37513a3.68694,3.68694,0,0,1,3.68664-3.68671h5.407a3.68689,3.68689,0,0,1,3.68677,3.68671Z"/><path class="cls-3" d="M200.85573,45.89435a3.68657,3.68657,0,0,1,3.68664,3.68653V155.89755a3.68641,3.68641,0,0,1-3.68664,3.68668H172.43912a3.68633,3.68633,0,0,1-3.04029-1.60136L116.374,80.679a.57666.57666,0,0,0-1.05226.32613v74.89247a3.68648,3.68648,0,0,1-3.68664,3.68668H78.21346a3.68646,3.68646,0,0,1-3.68665-3.68668V12.61017a3.68668,3.68668,0,0,1,3.68665-3.68683h28.98941a3.68683,3.68683,0,0,1,3.05231,1.61928L162.34506,87.448a.76707.76707,0,0,0,1.40216-.43005V49.58088a3.68655,3.68655,0,0,1,3.68664-3.68653Z"/><path class="cls-5" d="M167.92175,8.92334h32.83482a3.687,3.687,0,0,1,3.68665,3.68683v.55937a3.68654,3.68654,0,0,1-3.68665,3.68653H167.92175a3.68647,3.68647,0,0,1-3.68665-3.68653v-.55937a3.687,3.687,0,0,1,3.68665-3.68683Z"/><path class="cls-6" d="M167.92175,20.35206h32.934a3.68647,3.68647,0,0,1,3.68664,3.68668v.61447a3.68654,3.68654,0,0,1-3.68664,3.68653h-32.934a3.68666,3.68666,0,0,1-3.68665-3.68653v-.61447a3.6865,3.6865,0,0,1,3.68665-3.68668Z"/><path class="cls-7" d="M167.92175,31.84006h32.83482a3.68678,3.68678,0,0,1,3.68665,3.68668v.55937a3.68654,3.68654,0,0,1-3.68665,3.68667H167.92175a3.68665,3.68665,0,0,1-3.68665-3.68667v-.55937a3.6865,3.6865,0,0,1,3.68665-3.68668Z"/></g></svg>