<svg id="Camada_1" data-name="Camada 1" xmlns="http://www.w3.org/2000/svg" viewBox="0 0 920.64752 168.51064"><defs><style>.cls-1{fill:#fff;}.cls-2{fill:#ee7221;}.cls-3{fill:#3a6fa6;}.cls-4{fill:#1d806d;}.cls-5{fill:none;}</style></defs><path class="cls-1" d="M635.6712,61.81853a3.55625,3.55625,0,0,1-3.57969,3.98518H598.07974a4.0181,4.0181,0,0,1-3.84638-3.35115,26.59007,26.59007,0,0,0-1.88754-5.98015,21.04481,21.04481,0,0,0-5.13923-7.20074,21.42554,21.42554,0,0,0-7.85493-4.70239,30.44955,30.44955,0,0,0-10.49716-1.6899q-10.27832,0-17.39969,4.9964a30.82332,30.82332,0,0,0-10.7183,14.32771q-3.59623,9.3313-3.59694,22.41006,0,13.8135,3.6707,23.14488,3.74383,9.25806,10.792,13.96052,7.047,4.62892,16.95859,4.62892a34.00982,34.00982,0,0,0,10.13086-1.396,23.76388,23.76388,0,0,0,7.78131-4.18811,21.68725,21.68725,0,0,0,5.35911-6.53937,25.00174,25.00174,0,0,0,2.21934-5.6173,4.03525,4.03525,0,0,1,3.83653-3.10357l34.26.2431a3.46633,3.46633,0,0,1,3.48882,3.95218,58.51775,58.51775,0,0,1-4.89591,15.547,63.05106,63.05106,0,0,1-34.06328,31.59412q-12.48123,5.07084-28.9979,5.07032-20.70234,0-37.14788-8.89094a64.419,64.419,0,0,1-25.91456-26.15692q-9.46917-17.26694-9.4698-42.24874,0-25.12866,9.69095-42.32192a64.73,64.73,0,0,1,26.13459-26.084,75.92477,75.92477,0,0,1,36.7067-8.8905,84.29129,84.29129,0,0,1,26.20836,3.89409,63.043,63.043,0,0,1,20.99543,11.3887,56.23987,56.23987,0,0,1,14.53639,18.29557A64.84371,64.84371,0,0,1,635.6712,61.81853Z"/><path class="cls-1" d="M386.12366,159.29145a3.687,3.687,0,0,1-3.52809,2.6187H346.27113a3.68638,3.68638,0,0,1-3.49987-4.84424l47.318-143.0419a3.68568,3.68568,0,0,1,3.49987-2.52881H444.2018a3.68576,3.68576,0,0,1,3.49987,2.52881l47.318,143.0419a3.68638,3.68638,0,0,1-3.49987,4.84424H455.19538a3.68688,3.68688,0,0,1-3.52809-2.6187L419.6549,53.48158a.79352.79352,0,0,0-1.51893,0Z"/><path class="cls-1" d="M236.83682,159.944a3.6864,3.6864,0,0,1-3.68664-3.68667V12.96993a3.68663,3.68663,0,0,1,3.68664-3.68683h61.13679q16.719,0,29.25847,6.62091a47.96712,47.96712,0,0,1,19.50479,18.612q6.96577,11.99093,6.96645,28.0281,0,16.18441-7.1864,28.02825a47.27057,47.27057,0,0,1-20.01855,18.24405q-12.83312,6.40021-29.992,6.40006H261.47589a3.68636,3.68636,0,0,1-3.68665-3.68653V87.12325a3.68648,3.68648,0,0,1,3.68665-3.68668h26.81782a27.4101,27.4101,0,0,0,12.24575-2.50119,18.249,18.249,0,0,0,7.84645-7.28286A21.40621,21.40621,0,0,0,311.173,62.5441a20.77055,20.77055,0,0,0-2.78711-11.03465,17.49824,17.49824,0,0,0-7.84645-7.06231A27.40806,27.40806,0,0,0,288.29371,41.946H277.6074a3.68726,3.68726,0,0,0-3.68664,3.68668V156.25732a3.68638,3.68638,0,0,1-3.68664,3.68667Z"/><path class="cls-1" d="M27.06689,9.2831H60.49248a3.6866,3.6866,0,0,1,3.6866,3.6866V156.25739a3.6866,3.6866,0,0,1-3.6866,3.6866H27.06711a3.68683,3.68683,0,0,1-3.68683-3.68683V12.96971A3.6866,3.6866,0,0,1,27.06689,9.2831Z"/><path class="cls-1" d="M810.75475,159.28906a3.68657,3.68657,0,0,1-3.52937,2.62109h-36.2556a3.686,3.686,0,0,1-3.49987-4.843L814.71178,14.02566a3.6877,3.6877,0,0,1,3.50107-2.53046h50.52178a3.68785,3.68785,0,0,1,3.50107,2.53046L919.47756,157.0671a3.68612,3.68612,0,0,1-3.5,4.843H879.722a3.68663,3.68663,0,0,1-3.52937-2.62109L844.23193,53.48084a.79211.79211,0,0,0-1.51639,0Z"/><path class="cls-1" d="M772.26008,9.28311H649.00337a3.68661,3.68661,0,0,0-3.68665,3.68683v25.5838a3.68655,3.68655,0,0,0,3.68665,3.68652H686.837a3.68655,3.68655,0,0,1,3.68664,3.68653v110.3305a3.68632,3.68632,0,0,0,3.68665,3.68671h32.843a3.68647,3.68647,0,0,0,3.68665-3.68671V45.92691a3.68658,3.68658,0,0,1,3.68665-3.68665h37.83349a3.68657,3.68657,0,0,0,3.68677-3.68652V12.96994A3.68664,3.68664,0,0,0,772.26008,9.28311ZM716.96052,143.10818a3.6862,3.6862,0,0,1-3.68677,3.68671h-5.407a3.68649,3.68649,0,0,1-3.68664-3.68671V55.73489a3.68694,3.68694,0,0,1,3.68664-3.6867h5.407a3.68689,3.68689,0,0,1,3.68677,3.6867Z"/><path class="cls-1" d="M210.04722,46.25412a3.68656,3.68656,0,0,1,3.68664,3.68652V156.25732a3.6864,3.6864,0,0,1-3.68664,3.68667H181.63061a3.68635,3.68635,0,0,1-3.04029-1.60135L125.56548,81.03872a.57666.57666,0,0,0-1.05226.32612v74.89248a3.68647,3.68647,0,0,1-3.68664,3.68667H87.405a3.68645,3.68645,0,0,1-3.68665-3.68667V12.96993A3.68668,3.68668,0,0,1,87.405,9.2831h28.98941a3.68684,3.68684,0,0,1,3.05231,1.61928l52.08988,76.90537a.76707.76707,0,0,0,1.40216-.43V49.94064a3.68654,3.68654,0,0,1,3.68664-3.68652Z"/><path class="cls-2" d="M177.11323,9.2831h32.83483a3.68694,3.68694,0,0,1,3.68664,3.68683v.55937a3.68653,3.68653,0,0,1-3.68664,3.68653H177.11323a3.68647,3.68647,0,0,1-3.68664-3.68653v-.55937a3.68694,3.68694,0,0,1,3.68664-3.68683Z"/><path class="cls-3" d="M177.11323,20.71182h32.934a3.68647,3.68647,0,0,1,3.68664,3.68668V25.013a3.68654,3.68654,0,0,1-3.68664,3.68653h-32.934a3.68666,3.68666,0,0,1-3.68664-3.68653V24.3985a3.68649,3.68649,0,0,1,3.68664-3.68668Z"/><path class="cls-4" d="M177.11323,32.19982h32.83483a3.68675,3.68675,0,0,1,3.68664,3.68668v.55937a3.68653,3.68653,0,0,1-3.68664,3.68668H177.11323a3.68666,3.68666,0,0,1-3.68664-3.68668V35.8865a3.68649,3.68649,0,0,1,3.68664-3.68668Z"/><rect class="cls-5" x="23.38025" y="7.18942" width="897.26727" height="154.1318"/></svg>