<svg id="Camada_1" data-name="Camada 1" xmlns="http://www.w3.org/2000/svg" xmlns:xlink="http://www.w3.org/1999/xlink" viewBox="0 0 920.65 168.51"><defs><style>.cls-1{fill:none;}.cls-2{clip-path:url(#clip-path);}.cls-3,.cls-4{fill:#11182a;}.cls-4{opacity:0.67;}.cls-5{fill:#fff;}.cls-6{fill:#ee7221;}.cls-7{fill:#3a6fa6;}.cls-8{fill:#1d806d;}</style><clipPath id="clip-path"><rect class="cls-1" x="14.19" y="6.83" width="897.27" height="154.13"/></clipPath></defs><g class="cls-2"><path class="cls-3" d="M639.81,41.88a3.69,3.69,0,0,1-3.68-3.69V12.61a3.69,3.69,0,0,1,3.68-3.69H763.07a3.69,3.69,0,0,1,3.69,3.69V38.19a3.69,3.69,0,0,1-3.69,3.69H725.24a3.69,3.69,0,0,0-3.69,3.69V155.9a3.69,3.69,0,0,1-3.69,3.68H685a3.69,3.69,0,0,1-3.69-3.68V45.57a3.69,3.69,0,0,0-3.68-3.69Z"/><path class="cls-3" d="M626.48,61.46a3.55,3.55,0,0,1-3.58,4h-34A4,4,0,0,1,585,62.09a26.26,26.26,0,0,0-1.89-6,21.06,21.06,0,0,0-5.13-7.2,21.52,21.52,0,0,0-7.86-4.7,30.35,30.35,0,0,0-10.5-1.69q-10.27,0-17.4,5a30.79,30.79,0,0,0-10.71,14.32Q528,71.17,528,84.25q0,13.81,3.67,23.15t10.79,14q7.05,4.64,17,4.63a34,34,0,0,0,10.13-1.4,23.56,23.56,0,0,0,7.78-4.19,21.66,21.66,0,0,0,5.36-6.54,24.67,24.67,0,0,0,2.22-5.61,4,4,0,0,1,3.84-3.11l34.26.25a3.47,3.47,0,0,1,3.49,4,59,59,0,0,1-4.9,15.55,63,63,0,0,1-34.06,31.59q-12.48,5.07-29,5.07-20.7,0-37.15-8.89a64.45,64.45,0,0,1-25.91-26.16Q486,109.23,486,84.25t9.69-42.32a64.75,64.75,0,0,1,26.13-26.08A75.89,75.89,0,0,1,558.49,7a84.51,84.51,0,0,1,26.21,3.89,63.1,63.1,0,0,1,21,11.39,56.28,56.28,0,0,1,14.54,18.3A64.86,64.86,0,0,1,626.48,61.46Z"/><path class="cls-3" d="M376.93,158.93a3.68,3.68,0,0,1-3.53,2.62H337.08a3.69,3.69,0,0,1-3.5-4.84l47.32-143a3.68,3.68,0,0,1,3.5-2.52H435a3.68,3.68,0,0,1,3.5,2.52l47.32,143.05a3.69,3.69,0,0,1-3.5,4.84H446a3.68,3.68,0,0,1-3.52-2.62l-32-105.81a.8.8,0,0,0-.76-.56.8.8,0,0,0-.76.56Z"/><path class="cls-3" d="M227.65,159.58A3.69,3.69,0,0,1,224,155.9V12.61a3.69,3.69,0,0,1,3.69-3.69h61.13q16.73,0,29.26,6.62a48,48,0,0,1,19.51,18.62q7,12,7,28t-7.18,28a47.35,47.35,0,0,1-20,18.25q-12.84,6.39-30,6.4h-35a3.69,3.69,0,0,1-3.68-3.69V86.76a3.68,3.68,0,0,1,3.68-3.68H279.1a27.55,27.55,0,0,0,12.25-2.5,18.22,18.22,0,0,0,7.84-7.29A21.39,21.39,0,0,0,302,62.18a20.75,20.75,0,0,0-2.79-11,17.45,17.45,0,0,0-7.84-7.06,27.42,27.42,0,0,0-12.25-2.5H268.42a3.69,3.69,0,0,0-3.69,3.68V155.9a3.69,3.69,0,0,1-3.69,3.68Z"/><rect class="cls-3" x="14.19" y="8.92" width="40.8" height="150.66" rx="3.69"/><path class="cls-3" d="M801.56,158.93a3.68,3.68,0,0,1-3.53,2.62H761.78a3.69,3.69,0,0,1-3.5-4.84l47.24-143a3.69,3.69,0,0,1,3.5-2.53h50.52a3.68,3.68,0,0,1,3.5,2.53l47.25,143a3.69,3.69,0,0,1-3.5,4.84H870.53a3.68,3.68,0,0,1-3.53-2.62L835,53.12a.8.8,0,0,0-1.52,0Z"/><path class="cls-4" d="M203.68,52.77a.85.85,0,0,1,.86.86v106h-34L116.2,80.43h-.88v79.15H74.53V8.92h34.63l53.41,78.86h1.18V53.63a.85.85,0,0,1,.86-.86Z"/><path class="cls-5" d="M695,142.75V55.38a3.67,3.67,0,0,1,.28-1.42,3.73,3.73,0,0,1,2-2,3.67,3.67,0,0,1,1.42-.28h5.4a3.58,3.58,0,0,1,1.41.28,3.7,3.7,0,0,1,2,2,3.67,3.67,0,0,1,.28,1.42v87.37a3.58,3.58,0,0,1-.28,1.41,3.88,3.88,0,0,1-.8,1.2,3.68,3.68,0,0,1-1.2.79,3.59,3.59,0,0,1-1.41.29h-5.4a3.68,3.68,0,0,1-1.42-.29,3.54,3.54,0,0,1-1.19-.79,3.71,3.71,0,0,1-.8-1.2A3.58,3.58,0,0,1,695,142.75Z"/><path class="cls-3" d="M200.86,45.89a3.69,3.69,0,0,1,3.68,3.69V155.9a3.68,3.68,0,0,1-3.68,3.68H172.44a3.66,3.66,0,0,1-3-1.6l-53-77.3a.55.55,0,0,0-.47-.25.58.58,0,0,0-.58.58V155.9a3.68,3.68,0,0,1-3.68,3.68H78.21a3.68,3.68,0,0,1-3.68-3.68V12.61a3.69,3.69,0,0,1,3.68-3.69h29a3.7,3.7,0,0,1,3.06,1.62l52.09,76.91a.76.76,0,0,0,.63.33.77.77,0,0,0,.77-.76V49.58a3.69,3.69,0,0,1,3.68-3.69Z"/><path class="cls-6" d="M167.92,8.92h32.84a3.77,3.77,0,0,1,1.41.28,3.72,3.72,0,0,1,1.19.8,3.7,3.7,0,0,1,1.08,2.61v.56a3.7,3.7,0,0,1-1.08,2.61,3.72,3.72,0,0,1-1.19.8,3.77,3.77,0,0,1-1.41.28H167.92a3.77,3.77,0,0,1-1.41-.28,3.88,3.88,0,0,1-1.2-.8,3.68,3.68,0,0,1-.79-1.2,3.58,3.58,0,0,1-.28-1.41v-.56a3.58,3.58,0,0,1,.28-1.41,3.68,3.68,0,0,1,.79-1.2,3.88,3.88,0,0,1,1.2-.8A3.77,3.77,0,0,1,167.92,8.92Z"/><path class="cls-7" d="M167.92,20.35h32.94a3.85,3.85,0,0,1,1.41.28,3.7,3.7,0,0,1,2,2,3.58,3.58,0,0,1,.28,1.41v.61a3.7,3.7,0,0,1-2.27,3.41,3.66,3.66,0,0,1-1.41.28H167.92a3.58,3.58,0,0,1-1.41-.28,3.71,3.71,0,0,1-1.2-.8,3.74,3.74,0,0,1-1.07-2.61V24a3.58,3.58,0,0,1,.28-1.41,3.68,3.68,0,0,1,.79-1.2,3.88,3.88,0,0,1,1.2-.8A3.77,3.77,0,0,1,167.92,20.35Z"/><path class="cls-8" d="M167.92,31.84h32.84a3.65,3.65,0,0,1,2.6,1.08,3.46,3.46,0,0,1,.8,1.2,3.58,3.58,0,0,1,.28,1.41v.56a3.62,3.62,0,0,1-.28,1.41,3.42,3.42,0,0,1-.8,1.19,3.65,3.65,0,0,1-2.6,1.08H167.92a3.58,3.58,0,0,1-1.41-.28,3.71,3.71,0,0,1-1.2-.8,3.54,3.54,0,0,1-.79-1.19,3.62,3.62,0,0,1-.28-1.41v-.56a3.74,3.74,0,0,1,1.07-2.61,3.71,3.71,0,0,1,1.2-.8A3.58,3.58,0,0,1,167.92,31.84Z"/></g></svg>